<svg width="11" height="20" viewBox="0 0 11 20" fill="none" xmlns="http://www.w3.org/2000/svg">
<path d="M5.04102 6.3951C5.51444 6.39525 6.0451 6.6422 6.59863 7.2535C7.15308 7.86593 7.68146 8.79342 8.13672 10.0074C8.59032 11.217 8.95387 12.6646 9.20312 14.2691C9.42835 15.7191 9.55394 17.2663 9.57617 18.8365H0.504883C0.527119 17.2663 0.652704 15.7191 0.87793 14.2691C1.12718 12.6646 1.49074 11.217 1.94434 10.0074C2.3996 8.7934 2.92797 7.86593 3.48242 7.2535C4.03614 6.64197 4.56746 6.3951 5.04102 6.3951Z" stroke="#3E3E3E"/>
<circle cx="5" cy="3" r="2.5" fill="#EEEEEE" stroke="#3E3E3E"/>
<path d="M4.94238 6.5C5.0173 6.5002 5.08114 6.55485 5.09277 6.62891L6.37598 14.7979C6.43745 15.1894 6.333 15.589 6.08789 15.9004L6.04492 15.9551C5.52143 16.6196 4.52591 16.6534 3.95801 16.0264C3.6857 15.7256 3.5614 15.3197 3.61816 14.918L4.79102 6.63086C4.80179 6.55578 4.8665 6.5 4.94238 6.5Z" fill="#FFE100" stroke="#3E3E3E"/>
</svg>
